# Blender v2.79 (sub 0) OBJ File: ''
# www.blender.org
mtllib Cube_shard.012.mtl
o Cube_shard.012_Cube_shard.111
v -0.940615 0.425003 0.960174
v -0.958106 0.405657 0.974923
v -0.955559 0.408591 0.975724
v -0.948106 0.417061 0.975179
v -0.944538 0.421314 0.979941
v -0.940596 0.425483 0.971783
v -0.940611 0.425098 0.962474
v -0.935036 0.423315 0.956023
v -0.928321 0.421283 0.951026
v -0.926456 0.409235 0.950447
v -0.949886 0.405680 0.968630
v -0.922225 0.419756 0.954109
v -0.922269 0.419645 0.954071
v -0.924890 0.413061 0.951793
v -0.983914 0.380632 0.992894
v -0.994741 0.370535 1.000000
v -0.987592 0.378179 1.000000
v -0.981680 0.362387 0.989372
v -0.995148 0.367516 1.000000
v -0.978234 0.348869 0.983350
v -0.978446 0.340307 0.981179
v -0.984740 0.338184 0.984923
v -0.992478 0.337401 0.990020
v -0.996517 0.364045 1.000000
v -0.995804 0.365854 1.000000
v -1.000000 0.335727 0.991612
v -1.000000 0.361046 1.000000
v -0.992938 0.327708 0.949613
v -0.992995 0.327646 0.948320
v -0.999827 0.326183 0.945285
v -1.000000 0.326146 0.945208
v -1.000000 0.326383 0.951219
v -1.000000 0.326655 0.958148
v -0.997514 0.327108 0.957256
v -0.975085 0.340067 0.972024
v -0.969595 0.343489 0.958290
v -0.990065 0.329483 0.941588
v -0.968384 0.339589 0.953769
v -0.982626 0.331243 0.943777
v -1.000000 0.325241 0.951219
v -0.999792 0.325134 0.952322
v -1.000000 0.325164 0.951733
v -1.000000 0.325031 0.952211
v -1.000000 0.324950 0.952492
v -1.000000 0.325193 0.952756
v -1.000000 0.340016 1.000000
v -1.000000 0.337195 0.997024
v -0.981999 0.340561 0.990860
v -0.989764 0.345252 1.000000
v -0.987682 0.365854 1.000000
v -0.987392 0.368722 1.000000
v -0.937651 0.424901 0.976993
v -0.934349 0.423616 0.967693
v -0.924917 0.420617 0.957211
vt 0.049599 0.017139
vt 0.049599 0.047101
vt 0.046988 0.044114
vt 0.041907 0.034027
vt 0.035028 0.031541
vt 0.039308 0.022532
vt 0.047560 0.018207
vt 0.049851 0.009466
vt 0.049851 0.039427
vt 0.044065 0.043638
vt 0.037100 0.048706
vt 0.026711 0.042301
vt 0.043174 0.017377
vt 0.023311 0.040950
vt 0.012845 0.034671
vt 0.018213 0.030179
vt 0.018267 0.030292
vt 0.021476 0.037009
vt 0.038622 0.031186
vt 0.046914 0.030714
vt 0.046914 0.036727
vt 0.043575 0.015332
vt 0.043575 0.032310
vt 0.035854 0.026030
vt 0.036678 0.017766
vt 0.013706 0.027080
vt 0.017768 0.022646
vt 0.019171 0.032499
vt 0.011753 0.036190
vt 0.008379 0.022359
vt 0.020636 0.010610
vt 0.031704 0.008357
vt 0.031704 0.017895
vt 0.017680 0.044268
vt 0.013512 0.043031
vt 0.006722 0.036679
vt 0.026528 0.044896
vt 0.016048 0.043768
vt 0.011271 0.038440
vt 0.031716 0.011787
vt 0.038893 0.005504
vt 0.041524 0.008474
vt 0.010862 0.024117
vt 0.006682 0.023525
vt 0.013432 0.017131
vt 0.028605 0.048543
vt 0.021798 0.050175
vt 0.010819 0.024235
vt 0.022576 0.013645
vt 0.034628 0.002490
vt 0.030827 0.012242
vt 0.038549 0.052380
vt 0.025132 0.042911
vt 0.041544 0.033914
vt 0.041544 0.051821
vt 0.034147 0.002673
vt 0.034147 0.020580
vt 0.022740 0.030618
vt 0.014663 0.034199
vt 0.010439 0.027850
vt 0.006953 0.019230
vt 0.030416 0.002638
vt 0.032360 0.002656
vt 0.024629 0.057287
vt 0.005630 0.035726
vt 0.011571 0.030568
vt 0.026104 0.052933
vt 0.000000 0.000000
vt 0.000000 0.000000
vt 0.000000 0.000000
vt 0.000000 0.000000
vt 0.019295 0.040743
vt 0.000000 0.039721
vt 0.009788 0.031353
vt 0.019968 0.036697
vt 0.000000 0.000000
vt 0.000000 0.000000
vt 0.000000 0.000000
vt 0.000000 0.000000
vt 0.014459 0.018045
vt 0.016948 0.023070
vt 0.010454 0.027512
vt 0.005363 0.035294
vt 0.000000 0.030862
vt 0.010545 0.019247
vt 0.000000 0.011855
vt 0.029284 0.004919
vt 0.026994 0.006670
vt 0.000000 0.000000
vt 0.000000 0.000000
vt 0.000000 0.000000
vt 0.000000 0.000000
vt 0.000000 0.003497
vt 0.006937 0.002958
vt 0.007517 0.010562
vt 0.026243 0.048071
vt 0.000000 0.033340
vt 0.009483 0.026291
vt 0.021801 0.035187
vt 0.039212 0.042052
vt 0.035579 0.049591
vt 0.044784 0.055887
vt 0.037308 0.048779
vt 0.044784 0.044071
vt 0.037336 0.001093
vt 0.038626 0.000962
vt 0.042699 0.007398
vt 0.042803 0.007562
vt 0.036851 0.008440
vt 0.029992 0.009453
vt 0.030486 0.006819
vt 0.043108 0.009485
vt 0.043108 0.010781
vt 0.022860 0.034524
vt 0.015538 0.021225
vt 0.039232 0.002984
vt 0.003569 0.033858
vt 0.025387 0.013409
vt 0.026215 0.019445
vt 0.011172 0.031529
vt 0.000000 0.000000
vt 0.000000 0.000000
vt 0.000000 0.000000
vt 0.042999 0.006690
vt 0.045421 0.000000
vt 0.045421 0.000625
vt 0.045242 0.001113
vt 0.043143 0.006818
vt 0.000000 0.000000
vt 0.000000 0.000000
vt 0.000000 0.000000
vt 0.000000 0.000000
vt 0.000000 0.000000
vt 0.025470 0.002633
vt 0.037305 0.001630
vt 0.032059 0.007085
vt 0.041754 0.000411
vt 0.042224 0.000000
vt 0.042224 0.000257
vt 0.000193 0.014498
vt 0.000000 0.014328
vt 0.000310 0.014230
vt 0.000321 0.037046
vt 0.000000 0.036993
vt 0.000380 0.036692
vt 0.032337 0.054139
vt 0.034816 0.059145
vt 0.034816 0.059630
vt 0.030359 0.055947
vt 0.039264 0.000448
vt 0.045028 0.000000
vt 0.045028 0.020125
vt 0.028801 0.030564
vt 0.014626 0.017243
vt 0.044360 0.007778
vt 0.030238 0.042058
vt 0.016140 0.028655
vt 0.022210 0.029173
vn -0.7513 0.6594 -0.0260
vn -0.6068 -0.0558 -0.7929
vn 0.4711 0.1150 -0.8746
vn -0.3403 0.8937 0.2922
vn 0.5384 -0.7875 0.2999
vn 0.2618 0.9643 -0.0403
vn 0.5842 -0.4715 0.6606
vn 0.4884 -0.5978 0.6358
vn 0.6010 -0.4643 0.6505
vn 0.6011 -0.4646 0.6502
vn -0.7230 0.6763 -0.1407
vn -0.5984 0.0806 -0.7972
vn -0.5522 0.2177 -0.8048
vn -0.2614 0.3036 -0.9163
vn -1.0000 0.0000 0.0000
vn 0.3481 -0.6804 0.6449
vn 0.0000 0.0000 1.0000
vn 0.2607 -0.9318 0.2526
vn 0.7407 -0.0749 0.6677
vn 0.4053 -0.8978 0.1723
vn 0.8853 0.0187 0.4646
vn 0.9321 -0.1106 0.3450
vn -0.1928 0.9805 -0.0385
vn -0.5561 0.8310 -0.0153
vn 0.0121 0.7588 -0.6512
vn 0.2676 -0.9528 -0.1434
vn 0.2677 -0.9528 -0.1435
vn 0.5249 -0.8202 -0.2274
vn 0.5273 -0.8163 -0.2360
vn 0.7693 -0.4700 0.4327
vn 0.9321 -0.1105 0.3450
usemtl Cube_Outer
s off
f 1/1/1 2/2/1 3/3/1 4/4/1 5/5/1 6/6/1 7/7/1
f 2/8/2 1/9/2 8/10/2 9/11/2 10/12/2 11/13/2
f 10/14/3 9/15/3 12/16/3 13/17/3 14/18/3
f 5/19/4 52/20/4 6/21/4
f 4/22/5 53/23/5 52/24/5 5/25/5
f 6/26/6 52/27/6 53/28/6 7/29/6
f 53/30/7 4/31/7 3/32/7 11/33/7 10/34/7 14/35/7 54/36/7
f 53/28/6 54/37/6 8/38/6 1/39/6 7/29/6
f 11/40/8 3/41/8 2/42/8
f 13/43/9 54/44/9 14/45/9
f 54/37/6 12/46/6 9/47/6 8/38/6
f 12/48/10 54/44/10 13/43/10
f 15/49/11 16/50/11 17/51/11
f 16/52/12 15/53/12 18/54/12 19/55/12
f 19/56/13 18/57/13 20/58/13 21/59/13 22/60/13 23/61/13 24/62/13 25/63/13
f 24/64/14 23/65/14 26/66/14 27/67/14
f 46/68/15 27/69/15 26/70/15 47/71/15
f 47/72/16 48/73/16 49/74/16 46/75/16
f 50/76/17 25/77/17 24/78/17 27/69/17 46/68/17 49/79/17
f 47/80/18 26/81/18 23/82/18 22/83/18 48/84/18
f 49/85/19 48/86/19 51/87/19 50/88/19
f 25/77/17 50/76/17 51/89/17 17/90/17 16/91/17 19/92/17
f 48/93/20 22/94/20 21/95/20
f 51/96/21 48/97/21 20/98/21 18/99/21 15/100/21 17/101/21
f 48/102/22 21/103/22 20/104/22
f 28/105/23 29/106/23 30/107/23 31/108/23 32/109/23 33/110/23 34/111/23
f 29/112/24 28/113/24 35/114/24 36/115/24 37/116/24
f 37/117/25 36/118/25 38/119/25 39/120/25
f 31/121/15 40/122/15 32/123/15
f 30/124/26 41/125/26 42/126/26 40/127/26 31/128/26
f 32/123/15 40/122/15 42/129/15 43/130/15 44/131/15 45/132/15 33/133/15
f 39/134/27 41/125/27 30/124/27 29/135/27 37/136/27
f 42/137/28 41/138/28 43/139/28
f 43/140/29 41/141/29 44/142/29
f 44/143/30 41/144/30 45/145/30
f 33/146/18 45/147/18 41/148/18 34/149/18
f 34/150/20 41/151/20 39/152/20 38/153/20 35/154/20 28/155/20
f 35/156/31 38/157/31 36/158/31
