# Blender v2.79 (sub 0) OBJ File: ''
# www.blender.org
mtllib Cube_shard.018.mtl
o Cube_shard.018_Cube_shard.273
v 0.066854 0.213591 0.066943
v 0.066499 0.207631 0.067611
v 0.065536 0.211933 0.062104
v 0.068074 0.215199 0.072300
v 0.067453 0.214379 0.069572
v 0.062295 0.208283 0.055396
v 0.071078 0.217267 0.086264
v 0.070745 0.212384 0.086600
v 0.070061 0.217823 0.081024
v 0.056948 0.202262 0.044327
v 0.067091 0.214764 0.088318
v 0.072112 0.209089 0.086042
v 0.053435 0.200288 0.035764
v 0.054135 0.200681 0.037469
v 0.055968 0.201106 0.041652
v 0.076207 0.157353 0.064885
v 0.055900 0.190874 0.036658
v 0.064501 0.213199 0.089350
v 0.052378 0.202001 0.094057
v 0.047928 0.198188 0.095794
v 0.047318 0.188071 0.095728
v 0.079749 0.190199 0.082253
v 0.053968 0.173389 0.043217
v 0.053494 0.200870 0.035549
v 0.081639 0.186493 0.082653
v 0.061947 0.170625 0.041763
v 0.042555 0.193704 0.099328
v 0.089123 0.143330 0.093050
v 0.050021 0.194789 0.039938
v 0.051188 0.196287 0.038623
v 0.052362 0.197312 0.037440
v 0.053362 0.200454 0.035770
v 0.059634 0.174606 0.038599
v 0.089747 0.163169 0.086665
v 0.064903 0.152120 0.041492
v 0.034778 0.186998 0.101869
v 0.039254 0.147311 0.075688
v 0.088129 0.141775 0.092024
v 0.033704 0.173595 0.068739
v 0.040437 0.182908 0.056635
v 0.090278 0.161854 0.087000
v 0.069391 0.128457 0.057487
v 0.031046 0.183680 0.101901
v 0.026844 0.176181 0.099684
v 0.018558 0.171295 0.101240
v 0.090000 0.158248 0.088088
v 0.051632 0.110899 0.083612
v 0.052584 0.121176 0.044276
v 0.031427 0.170413 0.071564
v 0.085106 0.132806 0.090739
v 0.063314 0.136722 0.042025
v 0.074077 0.128345 0.067779
v 0.008002 0.161276 0.094757
v 0.014132 0.167409 0.098798
v 0.087430 0.138789 0.092122
v 0.038219 0.111794 0.079196
v 0.019285 0.114072 0.069069
v 0.028853 0.167039 0.072875
v 0.030200 0.168674 0.072161
v 0.084082 0.128117 0.089722
v 0.066380 0.128098 0.050987
v 0.006638 0.159912 0.093858
v 0.016597 0.146913 0.080283
v 0.053385 0.110895 0.083756
v 0.056342 0.110888 0.084000
v 0.012321 0.136830 0.082080
v 0.026307 0.166207 0.075275
v 0.028480 0.166589 0.073142
v 0.083355 0.127666 0.089572
v 0.056088 0.123482 0.043583
v 0.007913 0.160865 0.092793
v 0.027443 0.111459 0.081395
v 0.033202 0.111426 0.080240
v 0.008108 0.161011 0.092631
v 0.025328 0.166035 0.076237
v 0.007584 0.132907 0.083397
v 0.020585 0.112006 0.080007
v 0.004918 0.106942 0.074918
v 0.213574 0.422281 0.101465
v 0.204116 0.422940 0.093313
v 0.204939 0.425670 0.091790
v 0.210876 0.432471 0.091129
v 0.218379 0.441774 0.091973
v 0.228959 0.459755 0.089559
v 0.229723 0.459851 0.090277
v 0.202908 0.407456 0.109743
v 0.200394 0.412483 0.102131
v 0.234625 0.459936 0.093627
v 0.245792 0.425447 0.121936
v 0.241841 0.419361 0.122822
v 0.217127 0.392705 0.136029
v 0.207188 0.390022 0.131705
v 0.207087 0.390508 0.131106
v 0.205350 0.402317 0.117074
v 0.235704 0.463568 0.102945
v 0.239459 0.460221 0.120267
v 0.236105 0.414597 0.124335
v 0.222210 0.403192 0.127851
v 0.209008 0.381307 0.142451
v 0.238521 0.470372 0.124747
v 0.236257 0.465430 0.107721
v 0.237684 0.468603 0.118510
v 0.242613 0.446047 0.124070
v 0.212473 0.414219 0.131643
v 0.215104 0.388228 0.139399
v 0.209009 0.381299 0.142462
v 0.218627 0.461059 0.119507
v 0.228340 0.473208 0.125459
v 0.219954 0.468405 0.122858
v 0.217188 0.457186 0.120486
v 0.209551 0.444297 0.123672
v 0.208989 0.381444 0.142419
v 0.221181 0.475203 0.125959
v 0.202527 0.432845 0.133775
v 0.203490 0.424645 0.135803
v 0.205562 0.405622 0.135348
v 0.205835 0.403333 0.136025
v 0.204654 0.413846 0.135144
v 0.030379 0.169010 0.075279
v 0.051901 0.199675 0.071546
v 0.224203 0.468440 0.107125
v 0.202067 0.430854 0.112208
vt 0.029912 0.004108
vt 0.034296 0.000000
vt 0.034296 0.007054
vt 0.040291 0.037267
vt 0.046519 0.043865
vt 0.040572 0.043009
vt 0.040437 0.040192
vt 0.004967 0.009165
vt 0.000000 0.004155
vt 0.012755 0.006307
vt 0.041698 0.022924
vt 0.046519 0.023835
vt 0.039812 0.027936
vt 0.025606 0.001591
vt 0.019426 0.023047
vt 0.025161 0.017598
vt 0.023555 0.020832
vt 0.023804 0.025732
vt 0.056166 0.020030
vt 0.052702 0.019008
vt 0.033009 0.012552
vt 0.028831 0.012452
vt 0.056166 0.000000
vt 0.050419 0.006509
vt 0.050419 0.008394
vt 0.049871 0.012947
vt 0.050419 0.015973
vt 0.050419 0.041707
vt 0.000000 0.032354
vt 0.040649 0.006269
vt 0.026322 0.027836
vt 0.020322 0.022679
vt 0.021715 0.019801
vt 0.032111 0.006147
vt 0.035630 0.001149
vt 0.045700 0.000000
vt 0.045700 0.035184
vt 0.033147 0.000836
vt 0.035023 0.000649
vt 0.035135 0.001262
vt 0.006234 0.012257
vt 0.000000 0.006916
vt 0.010021 0.005392
vt 0.051014 0.044488
vt 0.002041 0.007635
vt 0.017367 0.004022
vt 0.022459 0.003414
vt 0.047064 0.007940
vt 0.051014 0.009304
vt 0.033608 0.044584
vt 0.040968 0.045438
vt 0.040968 0.023433
vt 0.039165 0.021989
vt 0.037462 0.021026
vt 0.035488 0.017901
vt 0.035434 0.018075
vt 0.034524 0.027805
vt 0.035226 0.017487
vt 0.033402 0.030038
vt 0.022484 0.052547
vt 0.021962 0.053907
vt 0.000000 0.038909
vt 0.033402 0.000000
vt 0.009632 0.026958
vt 0.049707 0.000000
vt 0.049707 0.026504
vt 0.031151 0.023871
vt 0.026435 0.026864
vt 0.013902 0.041611
vt 0.000000 0.039917
vt 0.006119 0.034445
vt 0.038684 0.002554
vt 0.038684 0.063845
vt 0.000000 0.038716
vt 0.036634 0.002052
vt 0.014227 0.017877
vt 0.000000 0.034665
vt 0.024882 0.055710
vt 0.020735 0.039543
vt 0.021797 0.005667
vt 0.026570 0.008568
vt 0.026570 0.000000
vt 0.044218 0.002522
vt 0.040713 0.020933
vt 0.041913 0.036376
vt 0.048905 0.049830
vt 0.052407 0.052243
vt 0.052407 0.000000
vt 0.000000 0.001557
vt 0.046103 0.000000
vt 0.046103 0.014004
vt 0.042653 0.017614
vt 0.034438 0.020980
vt 0.029632 0.029456
vt 0.025085 0.026238
vt 0.022120 0.025444
vt 0.016499 0.022052
vt 0.045891 0.000000
vt 0.045891 0.026595
vt 0.042117 0.026743
vt 0.026412 0.027880
vt 0.002884 0.005695
vt 0.054399 0.000000
vt 0.054399 0.035706
vt 0.040280 0.036640
vt 0.003527 0.008695
vt 0.052225 0.032589
vt 0.052225 0.000000
vt 0.000000 0.001361
vt 0.049020 0.036198
vt 0.014817 0.048128
vt 0.011458 0.044253
vt 0.014264 0.046780
vt 0.012980 0.019151
vt 0.014080 0.003701
vt 0.040324 0.000000
vt 0.040324 0.029229
vt 0.029043 0.028441
vt 0.021871 0.028373
vt 0.020458 0.036093
vt 0.035710 0.000000
vt 0.035710 0.040700
vt 0.029532 0.039127
vt 0.038469 0.000000
vt 0.000000 0.017149
vt 0.034211 0.058876
vt 0.036380 0.059417
vt 0.038469 0.060138
vt 0.028853 0.037710
vt 0.000000 0.033037
vt 0.030041 0.011878
vt 0.034348 0.014226
vt 0.048252 0.059407
vt 0.042073 0.049935
vt 0.028911 0.029726
vt 0.028517 0.030501
vt 0.013874 0.059273
vt 0.048252 0.081991
vt 0.018440 0.035419
vt 0.017440 0.014172
vt 0.030705 0.049218
vt 0.028482 0.010101
vt 0.031792 0.004431
vt 0.031792 0.050601
vt 0.035517 0.057836
vt 0.035517 0.016630
vt 0.032594 0.017136
vt 0.030861 0.017436
vt 0.017911 0.023139
vt 0.012814 0.022499
vt 0.000000 0.035198
vt 0.011645 0.002325
vt 0.047275 0.000000
vt 0.047275 0.023122
vt 0.037231 0.027844
vt 0.033377 0.032814
vt 0.011499 0.013327
vt 0.011364 0.007454
vt 0.003921 0.023067
vt 0.035421 0.066877
vt 0.035421 0.039752
vt 0.026425 0.033253
vt 0.007343 0.021960
vt 0.004544 0.023221
vt 0.025396 0.013914
vt 0.025494 0.014768
vt 0.004224 0.052699
vt 0.015005 0.044586
vt 0.017413 0.037830
vt 0.000000 0.052211
vt 0.028201 0.035528
vt 0.019032 0.026583
vt 0.031153 0.020655
vt 0.031781 0.013897
vt 0.033733 0.013278
vt 0.028873 0.046885
vt 0.031492 0.013969
vt 0.008603 0.021392
vt 0.041299 0.050004
vt 0.041299 0.031963
vt 0.036762 0.035695
vt 0.033531 0.041925
vt 0.050041 0.000000
vt 0.032975 0.000512
vt 0.043919 0.025680
vt 0.050041 0.027124
vt 0.033998 0.040949
vt 0.013208 0.020306
vt 0.040555 0.017998
vt 0.033985 0.033931
vt 0.045938 0.003516
vt 0.056579 0.017073
vt 0.056579 0.000000
vt 0.028021 0.019288
vt 0.027747 0.019186
vt 0.025953 0.018513
vt 0.026330 0.020608
vt 0.028021 0.030024
vt 0.032697 0.000774
vt 0.014900 0.017322
vt 0.023193 0.024139
vt 0.028923 0.026936
vt 0.038586 0.025681
vt 0.038586 0.000000
vt 0.029145 0.048424
vt 0.026078 0.048293
vt 0.024697 0.048234
vt 0.029145 0.052170
vt 0.018860 0.043646
vt 0.027021 0.040152
vt 0.027021 0.000000
vt 0.000000 0.026216
vt 0.023470 0.002087
vt 0.025265 0.003419
vt 0.025818 0.003747
vt 0.025818 0.000000
vt 0.025182 0.026436
vt 0.008624 0.024338
vt 0.004031 0.022857
vt 0.002290 0.021495
vt 0.000000 0.023645
vt 0.025182 0.051632
vt 0.025527 0.051188
vt 0.025527 0.011036
vt 0.021765 0.014320
vt 0.015649 0.022952
vt 0.012662 0.030201
vt 0.009359 0.035344
vt 0.033085 0.038427
vt 0.032026 0.036374
vt 0.017430 0.019090
vt 0.000000 0.037285
vt 0.025626 0.017054
vt 0.017451 0.012569
vt 0.014894 0.011166
vt 0.000000 0.026662
vt 0.016230 0.042442
vt 0.025626 0.028082
vt 0.025773 0.002293
vt 0.023873 0.001825
vt 0.000000 0.024760
vt 0.014979 0.040173
vt 0.016415 0.037760
vt 0.018869 0.033082
vt 0.021045 0.025076
vt 0.024634 0.011867
vt 0.025773 0.009011
vt 0.026859 0.023495
vt 0.025213 0.026237
vt 0.022949 0.030847
vt 0.026859 0.034523
vt 0.031256 0.006066
vt 0.035782 0.005325
vt 0.037813 0.005416
vt 0.037627 0.004963
vt 0.036223 0.001544
vt 0.000000 0.003435
vt 0.012463 0.002423
vt 0.013233 0.005563
vt 0.010213 0.014096
vt 0.034189 0.000000
vt 0.034189 0.014763
vt 0.023069 0.019223
vt 0.005950 0.031391
vt 0.005070 0.030815
vt 0.051022 0.029939
vt 0.051022 0.042442
vt 0.031060 0.040553
vt 0.037281 0.033423
vt 0.037298 0.043455
vt 0.006081 0.009675
vt 0.007684 0.002544
vt 0.043141 0.000000
vt 0.043141 0.042397
vt 0.020617 0.015049
vt 0.033868 0.000000
vt 0.033868 0.045629
vt 0.022944 0.043318
vt 0.022898 0.042542
vt 0.022560 0.024124
vt 0.015129 0.019521
vt 0.033059 0.021491
vt 0.038502 0.035480
vt 0.038649 0.056432
vt 0.006094 0.023941
vt 0.023657 0.057139
vt 0.036461 0.010889
vt 0.019760 0.017255
vt 0.030372 0.013276
vt 0.013496 0.031136
vt 0.030514 0.018914
vt 0.030514 0.063397
vt 0.013054 0.045871
vt 0.012136 0.038318
vt 0.046825 0.032288
vt 0.030347 0.024288
vt 0.016216 0.026020
vt 0.053699 0.000000
vt 0.053699 0.035548
vt 0.033667 0.010379
vt 0.044761 0.000000
vt 0.044761 0.027251
vt 0.041574 0.022217
vt 0.031142 0.050926
vt 0.023767 0.057263
vt 0.008185 0.023934
vt 0.024049 0.010385
vt 0.030342 0.019571
vt 0.024270 0.028251
vt 0.014322 0.029346
vt 0.048626 0.015992
vt 0.048626 0.036855
vt 0.044566 0.038101
vt 0.030940 0.045094
vt 0.000000 0.040679
vt 0.034119 0.012136
vt 0.013648 0.016697
vt 0.031903 0.000000
vt 0.031903 0.015192
vt 0.018339 0.029825
vt 0.017929 0.020110
vt 0.036319 0.000000
vt 0.018446 0.029717
vt 0.020000 0.034354
vt 0.035899 0.060883
vt 0.013057 0.039551
vt 0.029837 0.040545
vt 0.035899 0.046505
vt 0.036319 0.011636
vt 0.034667 0.013381
vt 0.008556 0.043719
vt 0.000000 0.043142
vt 0.010145 0.032954
vt 0.030592 0.054253
vt 0.030592 0.065889
vt 0.024499 0.059854
vt 0.037584 0.003621
vt 0.039383 0.008453
vt 0.042892 0.017880
vt 0.048551 0.019679
vt 0.049484 0.020165
vt 0.049484 0.000000
vt 0.033063 0.040521
vt 0.025112 0.048602
vt 0.033063 0.058168
vt 0.043425 0.018515
vt 0.022660 0.015369
vt 0.000000 0.032141
vt 0.043425 0.038680
vt 0.000000 0.045122
vt 0.019941 0.048576
vt 0.018987 0.041189
vt 0.017630 0.030683
vt 0.011136 0.031433
vt 0.027391 0.000000
vt 0.000000 0.034326
vt 0.016578 0.048272
vt 0.018998 0.031637
vt 0.027391 0.018825
vt 0.026437 0.025834
vt 0.016966 0.033173
vt 0.010713 0.039717
vt 0.026437 0.054026
vt 0.031904 0.057368
vt 0.031904 0.038544
vt 0.029570 0.042090
vt 0.021780 0.044598
vt 0.014573 0.046918
vt 0.014798 0.040795
vt 0.032169 0.046928
vt 0.032169 0.033136
vt 0.030713 0.031223
vt 0.027571 0.023567
vt 0.024310 0.013185
vt 0.019469 0.006197
vt 0.000000 0.015698
vt 0.010847 0.014090
vt 0.013583 0.015811
vt 0.026768 0.021020
vt 0.026768 0.000000
vt 0.020238 0.031675
vt 0.023315 0.022727
vt 0.026568 0.014036
vt 0.000000 0.025993
vt 0.012092 0.040130
vt 0.012594 0.040723
vt 0.021609 0.051376
vt 0.021618 0.051386
vt 0.021603 0.051235
vt 0.019242 0.028335
vn 0.9683 -0.0840 -0.2350
vn 0.9768 -0.0804 -0.1983
vn 0.9201 -0.2140 -0.3281
vn 0.4421 0.0315 0.8964
vn 0.8637 0.4084 -0.2953
vn 0.8910 0.1943 -0.4103
vn 0.3852 -0.0293 0.9224
vn 0.5720 -0.0399 0.8193
vn 0.3532 0.2765 0.8938
vn -0.5855 -0.2272 -0.7782
vn 0.8112 0.1867 -0.5541
vn 0.8774 0.1468 -0.4568
vn 0.4449 -0.1839 0.8765
vn -0.3321 -0.3625 0.8708
vn -0.7625 -0.2331 -0.6035
vn -0.3553 -0.6994 -0.6202
vn -0.1843 -0.0150 -0.9827
vn 0.4209 -0.4659 0.7783
vn 0.8433 -0.2136 -0.4931
vn -0.3049 0.1024 0.9469
vn -0.7831 0.0081 -0.6218
vn 0.0942 0.2809 0.9551
vn 0.9044 -0.1076 -0.4129
vn 0.1619 -0.6507 0.7419
vn -0.6115 0.1660 -0.7737
vn 0.9042 -0.1076 -0.4134
vn 0.5476 -0.7960 -0.2579
vn -0.0809 -0.1944 0.9776
vn 0.0185 -0.9675 -0.2523
vn 0.1964 0.0907 0.9763
vn -0.7052 0.1767 -0.6866
vn 0.5130 -0.8368 -0.1914
vn 0.6464 -0.4272 -0.6322
vn -0.0419 -0.9827 -0.1806
vn -0.4880 0.3159 -0.8137
vn -0.2121 -0.2836 0.9352
vn 0.3628 -0.9069 -0.2144
vn -0.6591 0.7415 -0.1255
vn -0.5255 0.7927 -0.3090
vn -0.5207 0.7570 -0.3948
vn -0.8029 0.5304 -0.2721
vn -0.7766 0.6296 -0.0232
vn -0.8193 0.5732 -0.0147
vn -0.6635 0.7455 -0.0630
vn -0.8064 0.5898 -0.0432
vn -0.6898 0.7215 -0.0599
vn -0.6898 0.7216 -0.0593
vn -0.4546 0.8722 0.1808
vn -0.8386 0.4386 0.3231
vn 0.5325 -0.5291 -0.6606
vn 0.6381 -0.4585 -0.6185
vn 0.4623 -0.6620 -0.5899
vn 0.5120 -0.4398 -0.7378
vn 0.4426 -0.6583 -0.6088
vn 0.9696 0.1680 -0.1778
vn 0.4426 -0.6584 -0.6088
vn 0.2958 -0.0532 0.9538
vn 0.3983 -0.6763 -0.6197
vn 0.6089 0.2828 0.7412
vn 0.4426 -0.6583 -0.6089
vn -0.0496 -0.4071 0.9120
vn -0.0251 0.2538 0.9669
vn 0.2957 -0.0665 0.9529
vn 0.1384 0.2960 0.9451
vn 0.6341 0.2551 0.7300
vn 0.4091 -0.0116 0.9124
vn 0.4051 0.0673 0.9118
vn 0.2419 0.8942 -0.3766
vn 0.2450 0.9209 -0.3033
vn -0.8044 0.4164 -0.4237
vn 0.2373 0.9258 -0.2943
vn -0.8630 0.5044 -0.0282
vn -0.7396 0.6202 -0.2615
vn -0.9266 0.2812 -0.2496
vn -0.9936 -0.1090 0.0312
vn -0.9647 0.1886 -0.1836
vn -0.9593 -0.0635 0.2750
vn -0.9901 -0.1228 0.0681
usemtl Cube_Outer
s off
f 1/1/1 2/2/1 3/3/1
f 4/4/2 2/5/2 1/6/2 5/7/2
f 3/8/3 2/9/3 6/10/3
f 7/11/2 8/12/2 2/5/2 4/4/2 9/13/2
f 6/10/3 2/9/3 10/14/3
f 11/15/4 12/16/4 8/17/4 7/18/4
f 8/19/5 12/20/5 22/21/5 25/22/5 2/23/5
f 13/24/6 14/25/6 15/26/6 10/27/6 2/28/6 16/29/6 17/30/6
f 12/31/7 11/32/7 18/33/7 19/34/7 20/35/7 21/36/7 22/37/7
f 14/38/3 13/39/3 24/40/3
f 27/41/8 21/42/8 20/43/8
f 21/44/9 28/45/9 46/46/9 34/47/9 25/48/9 22/49/9
f 33/50/10 23/51/10 29/52/10 30/53/10 31/54/10 32/55/10 13/56/10 17/57/10
f 24/58/10 13/56/10 32/55/10
f 25/59/11 34/60/11 41/61/11 16/62/11 2/63/11
f 17/64/12 16/65/12 35/66/12 26/67/12 33/68/12
f 36/69/13 21/70/13 27/71/13
f 28/72/14 21/73/14 37/74/14 38/75/14
f 29/76/15 23/77/15 39/78/15 40/79/15
f 33/80/16 26/81/16 23/82/16
f 26/83/17 35/84/17 51/85/17 70/86/17 48/87/17 23/88/17
f 37/89/18 21/90/18 36/91/18 43/92/18 44/93/18 45/94/18
f 38/95/19 55/96/19 50/97/19 16/98/19 41/99/19 46/100/19 28/101/19
f 38/102/20 37/103/20 56/104/20 47/105/20 55/106/20
f 39/107/21 23/108/21 48/109/21 49/110/21
f 34/111/22 46/112/22 41/113/22
f 51/114/23 35/115/23 16/116/23 52/117/23 42/118/23 61/119/23
f 53/120/24 37/121/24 45/122/24 54/123/24
f 48/124/25 57/125/25 58/126/25 59/127/25 49/128/25
f 52/129/26 16/130/26 50/131/26 60/132/26
f 42/133/27 52/134/27 60/135/27 69/136/27 65/137/27 48/138/27
f 62/139/24 63/140/24 37/121/24 53/120/24
f 64/141/28 50/142/28 55/143/28 47/144/28
f 48/145/29 65/146/29 64/147/29 47/148/29 56/149/29 73/150/29 57/151/29
f 56/152/30 37/153/30 63/154/30 66/155/30 76/156/30 72/157/30 73/158/30
f 58/159/31 57/160/31 66/161/31 63/162/31 67/163/31 68/164/31
f 60/165/28 50/142/28 69/166/28
f 70/167/32 61/168/32 42/169/32 48/170/32
f 51/171/33 61/172/33 70/173/33
f 71/174/31 63/162/31 62/175/31
f 50/142/28 64/141/28 65/176/28 69/166/28
f 63/162/31 71/174/31 74/177/31 75/178/31 67/163/31
f 57/179/34 73/180/34 72/181/34 77/182/34
f 57/183/35 78/184/35 76/185/35 66/186/35
f 72/187/36 76/188/36 78/189/36 77/190/36
f 77/191/37 78/192/37 57/193/37
f 74/194/38 71/195/38 62/196/38 53/197/38 54/198/38
f 75/199/39 74/200/39 54/201/39 45/202/39 44/203/39 119/204/39
f 68/205/40 67/206/40 75/207/40 119/208/40
f 44/209/41 43/210/41 120/211/41 119/212/41
f 59/213/42 58/214/42 68/215/42 119/216/42
f 40/217/43 39/218/43 49/219/43 59/220/43 119/221/43 120/222/43
f 120/223/44 43/224/44 36/225/44 27/226/44 20/227/44 19/228/44
f 30/229/45 29/230/45 40/231/45 120/232/45
f 9/233/46 4/234/46 5/235/46 120/236/46 19/237/46 18/238/46
f 31/239/47 30/240/47 120/241/47 5/242/47 1/243/47 3/244/47 6/245/47 10/246/47 15/247/47
f 18/248/48 11/249/48 7/250/48 9/251/48
f 15/252/49 14/253/49 24/254/49 32/255/49 31/256/49
f 79/257/50 80/258/50 81/259/50 82/260/50
f 79/261/51 82/262/51 83/263/51 84/264/51 85/265/51
f 80/266/52 79/267/52 86/268/52 87/269/52
f 88/270/53 89/271/53 90/272/53 79/273/53 85/274/53
f 86/275/54 79/276/54 91/277/54 92/278/54 93/279/54 94/280/54
f 95/281/55 96/282/55 103/283/55 89/284/55 88/285/55
f 92/278/56 91/277/56 99/286/56
f 100/287/55 96/282/55 95/281/55 101/288/55 102/289/55
f 89/290/57 103/291/57 104/292/57 97/293/57 90/294/57
f 97/295/58 98/296/58 91/297/58 79/298/58 90/299/58
f 98/300/59 104/301/59 105/302/59 91/303/59
f 99/286/60 91/277/60 105/304/60 106/305/60
f 107/306/61 96/307/61 100/308/61 108/309/61 109/310/61
f 96/311/62 107/312/62 110/313/62 111/314/62 104/315/62 103/316/62
f 97/317/63 104/318/63 98/319/63
f 106/320/64 105/321/64 104/322/64 112/323/64
f 109/310/61 108/309/61 113/324/61
f 104/325/65 111/326/65 114/327/65 115/328/65
f 104/322/64 116/329/64 117/330/64 112/323/64
f 118/331/66 104/332/66 115/333/66
f 116/334/67 104/335/67 118/336/67
f 101/337/68 95/338/68 88/339/68 85/340/68 84/341/68 121/342/68
f 102/343/69 101/344/69 121/345/69
f 84/346/70 83/347/70 122/348/70 121/349/70
f 121/350/71 113/351/71 108/352/71 100/353/71 102/354/71
f 121/355/72 122/356/72 114/357/72 111/358/72 110/359/72
f 83/360/73 82/361/73 81/362/73 122/363/73
f 121/364/74 110/365/74 107/366/74 109/367/74 113/368/74
f 94/369/75 93/370/75 117/371/75 116/372/75 118/373/75 115/374/75 114/375/75 122/376/75
f 81/377/76 80/378/76 87/379/76 122/380/76
f 87/381/77 86/382/77 94/383/77 122/384/77
f 93/385/78 92/386/78 99/387/78 106/388/78 112/389/78 117/390/78
