# Blender v2.79 (sub 0) OBJ File: ''
# www.blender.org
mtllib cone_0095_shard.033.mtl
o cone_0095_shard.033
v 0.026374 1.713062 0.048881
v 0.025541 1.706928 0.047405
v 0.028170 1.708189 0.046239
v 0.030347 1.710865 0.045798
v 0.027459 1.714585 0.048721
v 0.025455 1.712131 0.048979
v 0.024875 1.711361 0.048987
v 0.024585 1.710974 0.048990
v 0.024496 1.710289 0.048824
v 0.023071 1.706061 0.048153
v 0.032720 1.713606 0.045493
v 0.034540 1.715929 0.045337
v 0.028350 1.715628 0.048612
v 0.026609 1.729238 0.047144
v 0.026613 1.728657 0.047243
v 0.027027 1.725569 0.047566
v 0.027017 1.725499 0.047583
v 0.027049 1.725095 0.047637
v 0.035941 1.719155 0.044045
v 0.037782 1.725177 0.040893
v 0.038144 1.726582 0.040203
v 0.037956 1.729889 0.039281
v 0.026505 1.729235 0.047171
v 0.026161 1.735885 0.045410
v 0.033169 1.734946 0.040965
v 0.032767 1.735019 0.041214
v 0.029742 1.735402 0.043140
v 0.026231 1.735922 0.045352
v 0.038515 1.728585 0.039103
v 0.038548 1.729159 0.038870
v 0.026463 1.729374 0.047148
v 0.024556 1.736261 0.045776
v 0.024062 1.736361 0.045894
v 0.037342 1.735265 0.037439
v 0.034826 1.735035 0.039581
v 0.038670 1.729928 0.038611
v 0.038670 1.734622 0.036512
v 0.038560 1.734677 0.036587
v 0.037381 1.735277 0.037398
v 0.038080 1.736168 0.035409
v 0.036056 1.737785 0.036089
v 0.037895 1.736652 0.035064
v 0.036347 1.739526 0.032698
v 0.037097 1.738475 0.033692
v 0.037463 1.737786 0.034255
v 0.026709 1.724180 0.032840
v 0.029654 1.740468 0.038656
v 0.032992 1.742195 0.029985
v 0.034381 1.741523 0.030959
v 0.035460 1.740575 0.031863
v 0.024877 1.739830 0.026463
v 0.027873 1.711550 0.042543
v 0.025541 1.737815 0.044124
v 0.024157 1.745376 0.024426
v 0.025794 1.745254 0.025316
v 0.026732 1.745147 0.025837
v 0.027144 1.745058 0.026079
v 0.028601 1.744283 0.027070
v 0.025594 1.745205 0.027323
v 0.032504 1.741790 0.032480
v 0.012211 1.720266 0.026923
v 0.013499 1.707819 0.036818
v 0.022947 1.741796 0.039800
v 0.018519 1.741103 0.043004
v 0.019069 1.740284 0.043886
v 0.022038 1.738403 0.045054
v 0.014476 1.744449 0.022076
v 0.022976 1.745451 0.024077
v 0.023041 1.745445 0.024097
v 0.023135 1.745445 0.024123
v 0.010058 1.738219 0.022930
v 0.024029 1.744341 0.031601
v 0.021255 1.706384 0.047653
v 0.018937 1.705687 0.046945
v 0.013848 1.703980 0.045784
v 0.015867 1.742545 0.040868
v 0.013915 1.743449 0.039428
v 0.013852 1.743474 0.039385
v 0.012196 1.740378 0.041422
v 0.009347 1.743696 0.020992
v 0.013756 1.744366 0.021917
v 0.011401 1.745317 0.030876
v 0.008968 1.745379 0.034820
v 0.009268 1.745337 0.035126
v 0.010643 1.745169 0.036033
v 0.020024 1.744342 0.034679
v -0.003459 1.721803 0.027363
v -0.001827 1.706336 0.034191
v 0.006374 1.711214 0.046248
v 0.006888 1.703337 0.044572
v 0.006324 1.703395 0.044219
v 0.008803 1.725990 0.044829
v -0.002965 1.738327 0.021454
v -0.002876 1.738559 0.021385
v -0.000949 1.743094 0.020059
v -0.000079 1.743163 0.020132
v 0.000719 1.743226 0.020198
v 0.002131 1.743338 0.020317
v 0.005326 1.743460 0.020628
v 0.008478 1.743581 0.020935
v 0.003015 1.744970 0.029652
v 0.001304 1.744700 0.028278
v -0.000955 1.739259 0.030162
v -0.004672 1.733784 0.022905
v -0.001370 1.704164 0.039399
v -0.007264 1.709392 0.036891
v -0.002396 1.704968 0.038935
v -0.008119 1.710974 0.036737
v -0.005401 1.731469 0.024410
v -0.000163 1.743705 0.022796
v -0.000719 1.743337 0.020687
v -0.000838 1.743212 0.020362
v -0.007123 1.723084 0.029249
v -0.006444 1.724766 0.028055
v -0.006832 1.708395 0.037072
v -0.008277 1.713333 0.035624
v -0.007884 1.718117 0.032801
v -0.004765 1.725057 0.032945
v -0.007713 1.721429 0.030677
vt 0.000000 0.000000
vt 0.000000 0.000000
vt 0.000000 0.000000
vt 0.000000 0.000000
vt 0.000000 0.000000
vt 0.000000 0.000000
vt 0.000000 0.000000
vt 0.000000 0.000000
vt 0.000000 0.000000
vt 0.000000 0.000000
vt 0.000000 0.000000
vt 0.000000 0.000000
vt 0.000000 0.000000
vt 0.000000 0.000000
vt 0.000000 0.000000
vt 0.000000 0.000000
vt 0.000000 0.000000
vt 0.000000 0.000000
vt 0.000000 0.000000
vt 0.000000 0.000000
vt 0.000000 0.000000
vt 0.000000 0.000000
vt 0.000000 0.000000
vt 0.000000 0.000000
vt 0.000000 0.000000
vt 0.000000 0.000000
vt 0.000000 0.000000
vt 0.000000 0.000000
vt 0.000000 0.000000
vt 0.000000 0.000000
vt 0.000000 0.000000
vt 0.000000 0.000000
vt 0.000000 0.000000
vt 0.000000 0.000000
vt 0.000000 0.000000
vt 0.000000 0.000000
vt 0.000000 0.000000
vt 0.000000 0.000000
vt 0.000000 0.000000
vt 0.000000 0.000000
vt 0.000000 0.000000
vt 0.000000 0.000000
vt 0.000000 0.000000
vt 0.000000 0.000000
vt 0.000000 0.000000
vt 0.000000 0.000000
vt 0.000000 0.000000
vt 0.000000 0.000000
vt 0.000000 0.000000
vt 0.000000 0.000000
vt 0.000000 0.000000
vt 0.000000 0.000000
vt 0.000000 0.000000
vt 0.000000 0.000000
vt 0.000000 0.000000
vt 0.000000 0.000000
vt 0.000000 0.000000
vt 0.000000 0.000000
vt 0.000000 0.000000
vt 0.000000 0.000000
vt 0.013747 0.002579
vt 0.013747 0.008944
vt 0.010883 0.007654
vt 0.008770 0.004893
vt 0.012723 0.001007
vt 0.013525 0.005275
vt 0.013525 0.011639
vt 0.012670 0.010644
vt 0.012157 0.009828
vt 0.011901 0.009417
vt 0.011905 0.008708
vt 0.010986 0.004290
vt 0.010015 0.001436
vt 0.010015 0.006979
vt 0.006404 0.006536
vt 0.003497 0.006008
vt 0.008651 0.001257
vt 0.013530 0.000000
vt 0.013530 0.000588
vt 0.013091 0.003691
vt 0.013102 0.003762
vt 0.013070 0.004170
vt 0.011687 0.013675
vt 0.004724 0.012874
vt 0.003121 0.009486
vt 0.000000 0.012189
vt 0.010508 0.002812
vt 0.013127 0.009348
vt 0.013658 0.010863
vt 0.013658 0.014302
vt 0.013275 0.000035
vt 0.013862 0.000000
vt 0.013862 0.000108
vt 0.005136 0.013554
vt 0.000000 0.008969
vt 0.010514 0.000000
vt 0.010514 0.007164
vt 0.010221 0.007543
vt 0.007882 0.010287
vt 0.005228 0.013519
vt 0.000000 0.003052
vt 0.003359 0.002318
vt 0.001362 0.003489
vt 0.000783 0.003715
vt 0.013920 0.013690
vt 0.013920 0.013798
vt 0.013777 0.013659
vt 0.000145 0.000673
vt 0.000000 0.000536
vt 0.006879 0.000274
vt 0.007317 0.001905
vt 0.007435 0.002409
vt 0.005550 0.006906
vt 0.000000 0.002377
vt 0.005638 0.001435
vt 0.005546 0.004746
vt 0.013643 0.013097
vt 0.013643 0.014077
vt 0.012878 0.013393
vt 0.008559 0.001028
vt 0.014183 0.000000
vt 0.014183 0.000981
vt 0.009304 0.002604
vt 0.009240 0.002474
vt 0.008549 0.001085
vt 0.003724 0.012827
vt 0.005174 0.013570
vt 0.006073 0.013911
vt 0.007485 0.014280
vt 0.008087 0.014437
vt 0.010012 0.014939
vt 0.015125 0.014403
vt 0.015913 0.014176
vt 0.016526 0.014072
vt 0.016526 0.000000
vt 0.006654 0.018620
vt 0.008471 0.018781
vt 0.010152 0.018546
vt 0.011703 0.018122
vt 0.011703 0.000000
vt 0.000000 0.012328
vt 0.012092 0.016929
vt 0.012092 0.000000
vt 0.000000 0.010430
vt 0.010054 0.020276
vt 0.011323 0.018339
vt 0.011544 0.000012
vt 0.012164 0.001773
vt 0.012557 0.002777
vt 0.012774 0.003212
vt 0.014014 0.004685
vt 0.017497 0.009157
vt 0.017497 0.000000
vt 0.000000 0.015952
vt 0.016997 0.016140
vt 0.016997 0.000000
vt 0.007965 0.018067
vt 0.012294 0.022272
vt 0.012294 0.005342
vt 0.009015 0.011574
vt 0.007795 0.015117
vt 0.000000 0.014334
vt 0.015890 0.015916
vt 0.015890 0.000000
vt 0.012071 0.014413
vt 0.005197 0.008937
vt 0.005135 0.008906
vt 0.005052 0.008855
vt 0.004107 0.008357
vt 0.000000 0.012666
vt 0.012071 0.022099
vt 0.012148 0.023310
vt 0.012148 0.000000
vt 0.000000 0.013976
vt 0.015855 0.000000
vt 0.000000 0.014373
vt 0.015855 0.016140
vt 0.004050 0.006056
vt 0.000000 0.008995
vt 0.004365 0.013163
vt 0.004111 0.009533
vt 0.017115 0.000000
vt 0.008871 0.005350
vt 0.008641 0.007862
vt 0.007720 0.013276
vt 0.017115 0.015916
vt 0.016766 0.009774
vt 0.015732 0.010600
vt 0.013942 0.013836
vt 0.012824 0.016170
vt 0.012794 0.016245
vt 0.016766 0.017076
vt 0.011432 0.021946
vt 0.011432 0.000105
vt 0.009500 0.002572
vt 0.009162 0.003057
vt 0.009091 0.003186
vt 0.005777 0.009907
vt 0.005762 0.012902
vt 0.006544 0.016523
vt 0.005814 0.013937
vt 0.006123 0.009393
vt 0.006147 0.008652
vt 0.000000 0.013265
vt 0.000000 0.011969
vt 0.018127 0.015751
vt 0.018127 0.000000
vt 0.015526 0.015953
vt 0.015526 0.000000
vt 0.000000 0.001710
vt 0.010983 0.000000
vt 0.007394 0.003488
vt 0.008184 0.006528
vt 0.009244 0.009036
vt 0.010983 0.009828
vt 0.018114 0.000673
vt 0.012238 0.005265
vt 0.014663 0.004574
vt 0.016545 0.004904
vt 0.015466 0.018418
vt 0.015466 0.000000
vt 0.007404 0.000361
vt 0.008157 0.007415
vt 0.009974 0.012597
vt 0.014763 0.018314
vt 0.011988 0.000000
vt 0.005407 0.007207
vt 0.011329 0.011113
vt 0.011988 0.011217
vt 0.016041 0.013070
vt 0.011390 0.011404
vt 0.009734 0.011381
vt 0.016041 0.017129
vt 0.000088 0.003062
vt 0.018265 0.015171
vt 0.018265 0.000000
vt 0.000081 0.002991
vt 0.010720 0.020197
vt 0.010798 0.019950
vt 0.012146 0.015029
vt 0.011479 0.014462
vt 0.010866 0.013942
vt 0.009784 0.013021
vt 0.007250 0.011047
vt 0.004750 0.009099
vt 0.004113 0.008494
vt 0.000000 0.012657
vt 0.006757 0.007568
vt 0.007187 0.007588
vt 0.015023 0.006629
vt 0.017188 0.006185
vt 0.017188 0.000000
vt 0.000000 0.002358
vt 0.012354 0.000000
vt 0.003406 0.009210
vt 0.001764 0.014001
vt 0.012354 0.021722
vt 0.012506 0.021070
vt 0.012506 0.000000
vt 0.000000 0.011494
vt 0.007937 0.011012
vt 0.015313 0.005661
vt 0.015313 0.000000
vt 0.000000 0.003085
vt 0.000501 0.002874
vt 0.018982 0.015041
vt 0.018982 0.000000
vt 0.000728 0.002446
vt 0.013810 0.001818
vt 0.009213 0.006947
vt 0.008375 0.008048
vt 0.007460 0.017114
vt 0.007391 0.017778
vt 0.015438 0.018377
vt 0.015438 0.001040
vt 0.011890 0.022055
vt 0.011890 0.000000
vt 0.000000 0.009421
vt 0.000000 0.001453
vt 0.017966 0.014369
vt 0.018453 0.013538
vt 0.018453 0.000408
vt 0.018371 0.000006
vt 0.011285 0.010655
vt 0.011285 0.000000
vt 0.004607 0.006052
vt 0.004802 0.006221
vt 0.008687 0.009471
vt 0.015434 0.009012
vt 0.015434 0.000000
vt 0.009319 0.000931
vt 0.009930 0.006660
vt 0.010148 0.008861
vt 0.010257 0.009213
vt 0.010359 0.009541
vt 0.017350 0.011436
vt 0.015263 0.012035
vt 0.007578 0.012523
vt 0.004783 0.013112
vt 0.017350 0.015752
vt 0.016247 0.016986
vt 0.016247 0.000000
vt 0.010234 0.001197
vt 0.009824 0.002219
vt 0.008959 0.003804
vt 0.009073 0.006415
vt 0.010201 0.011868
vt 0.000000 0.009346
vt 0.004213 0.013127
vt 0.004350 0.011750
vt 0.005062 0.005887
vt 0.000000 0.001986
vt 0.017951 0.015041
vt 0.017951 0.000000
vt 0.011197 0.009444
vt 0.016784 0.013472
vt 0.016244 0.012512
vt 0.014937 0.000000
vt 0.000000 0.016418
vt 0.012422 0.018047
vt 0.014937 0.017337
vt 0.012170 0.000000
vt 0.000000 0.008710
vt 0.012170 0.022055
vt 0.000406 0.018923
vt 0.013471 0.020231
vt 0.012514 0.019333
vt 0.010960 0.018281
vt 0.009892 0.017414
vt 0.007072 0.007455
vt 0.009511 0.014759
vt 0.014685 0.014965
vt 0.014685 0.000000
vt 0.016423 0.000000
vt 0.010311 0.005039
vt 0.014249 0.004950
vt 0.016423 0.004316
vt 0.015874 0.014697
vt 0.015874 0.009518
vt 0.013860 0.010331
vt 0.011861 0.011396
vt 0.014283 0.000000
vt 0.010672 0.003737
vt 0.012266 0.007338
vt 0.014283 0.012528
vn 0.6385 0.5932 0.4903
vn 0.6381 0.5933 0.4907
vn 0.6385 0.5934 0.4900
vn 0.4901 0.5925 0.6393
vn 0.6386 0.5933 0.4901
vn 0.5010 0.5854 0.6374
vn 0.4904 0.7575 0.4309
vn 0.5841 0.6767 0.4483
vn 0.4874 0.5834 0.6497
vn 0.3026 0.9296 0.2102
vn 0.4182 0.8294 0.3704
vn 0.2668 0.7836 0.5611
vn 0.4903 0.5926 0.6391
vn 0.0583 0.9978 0.0299
vn 0.0944 0.9950 0.0336
vn 0.1629 0.9828 0.0865
vn 0.3029 0.9143 0.2689
vn 0.2469 0.9224 0.2971
vn 0.2385 0.9181 0.3166
vn 0.1570 0.8980 0.4110
vn 0.2977 0.6003 0.7423
vn 0.3089 0.5938 0.7429
vn -0.0864 0.9880 -0.1277
vn 0.0715 0.9931 0.0926
vn 0.0328 0.9895 0.1409
vn 0.1527 0.9169 0.3688
vn 0.1316 0.9296 0.3442
vn -0.1208 0.9833 -0.1362
vn -0.0358 0.9986 -0.0377
vn -0.0447 0.9372 -0.3460
vn -0.0451 0.9369 -0.3467
vn -0.0452 0.9367 -0.3471
vn -0.0216 0.9859 -0.1659
vn -0.0216 0.9859 -0.1658
vn -0.0153 0.9845 -0.1746
vn 0.4947 -0.2661 0.8273
vn 0.3632 -0.2642 0.8935
vn 0.4572 -0.3024 0.8364
vn 0.4563 0.1529 0.8766
vn 0.5409 0.2543 0.8017
vn 0.2482 0.1646 0.9546
vn 0.5424 0.2460 0.8033
vn 0.7265 0.2226 0.6501
vn 0.2436 0.2284 0.9426
vn 0.2725 0.2600 0.9264
vn 0.5971 0.3203 0.7355
vn 0.6741 0.1372 0.7258
vn 0.6408 0.3134 0.7008
vn 0.5370 -0.3444 -0.7701
vn 0.4510 -0.2910 -0.8437
vn 0.5441 -0.4790 -0.6888
vn 0.4468 -0.2568 -0.8570
vn 0.4285 -0.2975 -0.8531
vn 0.5948 -0.5079 -0.6231
vn 0.4290 -0.5251 -0.7350
vn 0.2521 -0.3046 -0.9185
vn 0.2467 -0.1821 -0.9518
vn 0.4391 -0.5308 -0.7249
vn 0.5896 -0.5734 -0.5688
vn 0.3707 -0.8485 -0.3777
vn -0.2563 0.6233 0.7388
vn -0.3363 0.0533 0.9402
vn 0.2389 -0.2961 -0.9248
vn -0.0491 -0.2225 -0.9737
vn 0.1912 -0.5986 -0.7779
vn 0.0544 -0.7366 -0.6741
vn -0.2750 -0.0596 0.9596
vn -0.1482 -0.2151 0.9653
vn 0.1524 -0.9064 -0.3939
vn -0.3668 0.6403 0.6749
vn -0.1376 0.2588 0.9561
vn 0.1041 -0.3197 -0.9418
vn -0.5961 0.4723 0.6493
vn 0.1032 -0.3376 -0.9356
vn -0.0656 -0.4088 -0.9103
vn 0.1549 -0.9069 -0.3919
vn -0.1463 0.1184 0.9821
vn -0.5341 -0.2092 0.8191
vn -0.6323 0.3165 0.7071
vn -0.1453 0.1195 0.9821
vn -0.9043 0.3930 0.1666
vn -0.8905 0.4255 0.1610
vn -0.5220 -0.3433 -0.7808
vn -0.5740 -0.3806 -0.7250
vn -0.5036 -0.8122 -0.2946
vn -0.6553 0.1782 0.7341
vn -0.3869 0.0004 0.9221
vn -0.5208 0.3354 0.7851
vn -0.6385 0.3094 0.7047
vn 0.0020 0.1027 0.9947
vn -0.9073 0.3009 0.2937
vn -0.5279 -0.4391 -0.7271
vn -0.8220 0.5106 0.2520
vn -0.8026 0.3507 0.4825
usemtl cone_0095_Outer
s off
f 38/1/1 40/2/1 41/3/1 39/4/1
f 37/5/2 40/2/2 38/1/2
f 42/6/3 41/3/3 40/2/3
f 39/4/4 41/3/4 35/7/4 34/8/4
f 45/9/5 41/3/5 42/6/5
f 35/7/6 41/3/6 47/10/6 26/11/6 25/12/6
f 50/13/7 47/10/7 41/3/7 44/14/7 43/15/7
f 44/14/8 41/3/8 45/9/8
f 26/11/9 47/10/9 53/16/9 27/17/9
f 59/18/10 60/19/10 49/20/10 48/21/10 58/22/10
f 50/13/11 49/20/11 60/19/11 47/10/11
f 47/10/12 63/23/12 64/24/12 65/25/12 66/26/12 53/16/12
f 27/17/13 53/16/13 28/27/13
f 54/28/14 70/29/14 59/18/14 55/30/14
f 55/30/15 59/18/15 56/31/15
f 56/31/16 59/18/16 57/32/16
f 57/32/17 59/18/17 58/22/17
f 59/18/18 72/33/18 47/10/18 60/19/18
f 47/10/19 72/33/19 86/34/19 63/23/19
f 64/24/20 63/23/20 76/35/20
f 32/36/21 53/16/21 66/26/21 33/37/21
f 28/27/22 53/16/22 32/36/22 24/38/22
f 82/39/23 68/40/23 67/41/23 81/42/23
f 68/40/24 82/39/24 83/43/24 84/44/24 85/45/24 86/34/24 69/46/24
f 69/46/25 86/34/25 72/33/25 59/18/25 70/29/25
f 63/23/26 86/34/26 77/47/26 76/35/26
f 86/34/27 85/45/27 78/48/27 77/47/27
f 82/39/28 81/42/28 80/49/28 100/50/28
f 83/43/29 82/39/29 101/51/29
f 95/52/30 112/53/30 96/54/30
f 97/55/31 96/54/31 112/53/31 111/56/31
f 97/55/32 111/56/32 98/57/32
f 99/58/33 98/57/33 111/56/33 110/59/33
f 100/50/34 99/58/34 110/59/34 82/39/34
f 101/51/35 82/39/35 110/59/35 102/60/35
usemtl cone_0095_Inner
f 1/61/36 2/62/36 3/63/36 4/64/36 5/65/36
f 2/66/37 1/67/37 6/68/37 7/69/37 8/70/37 9/71/37 10/72/37
f 5/73/38 4/74/38 11/75/38 12/76/38 13/77/38
f 14/78/39 15/79/39 16/80/39 17/81/39 18/82/39 13/83/39 12/84/39 19/85/39
f 14/86/40 19/87/40 20/88/40 21/89/40 22/90/40
f 15/91/41 14/92/41 23/93/41
f 24/94/42 14/95/42 22/96/42 25/97/42 26/98/42 27/99/42 28/100/42
f 22/101/43 21/102/43 29/103/43 30/104/43
f 23/105/44 14/106/44 31/107/44
f 31/108/45 14/109/45 24/110/45 32/111/45 33/112/45
f 25/113/46 22/114/46 34/115/46 35/116/46
f 36/117/47 22/118/47 30/119/47
f 34/120/48 22/121/48 36/122/48 37/123/48 38/124/48 39/125/48
f 43/126/49 44/127/49 45/128/49 42/129/49 40/130/49 37/131/49 36/132/49 30/133/49 29/134/49 46/135/49
f 48/136/50 49/137/50 50/138/50 43/139/50 46/140/50 51/141/50
f 20/142/51 52/143/51 46/144/51 29/145/51 21/146/51
f 54/147/52 55/148/52 56/149/52 57/150/52 58/151/52 48/152/52 51/153/52
f 51/154/53 46/155/53 61/156/53
f 11/157/54 52/158/54 20/159/54 19/160/54 12/161/54
f 46/162/55 52/163/55 62/164/55
f 67/165/56 68/166/56 69/167/56 70/168/56 54/169/56 51/170/56 71/171/56
f 51/172/57 61/173/57 71/174/57
f 46/175/58 62/176/58 61/177/58
f 3/178/59 52/179/59 11/180/59 4/181/59
f 52/182/60 73/183/60 74/184/60 75/185/60 62/186/60
f 65/187/61 64/188/61 76/189/61 77/190/61 78/191/61 79/192/61
f 79/193/62 16/194/62 15/195/62 23/196/62 31/197/62 33/198/62 66/199/62 65/200/62
f 80/201/63 81/202/63 67/203/63 71/204/63
f 71/205/64 61/206/64 87/207/64
f 61/208/65 62/209/65 88/210/65
f 52/211/66 3/212/66 2/213/66 10/214/66 73/215/66
f 9/216/67 74/217/67 73/218/67 10/219/67
f 8/220/68 89/221/68 90/222/68 75/223/68 74/224/68 9/225/68
f 62/226/69 75/227/69 90/228/69 91/229/69
f 78/230/70 85/231/70 84/232/70 79/233/70
f 16/234/71 79/235/71 92/236/71 17/237/71
f 93/238/72 94/239/72 95/240/72 96/241/72 97/242/72 98/243/72 99/244/72 100/245/72 80/246/72 71/247/72
f 84/248/73 83/249/73 101/250/73 102/251/73 103/252/73 79/253/73
f 87/254/74 104/255/74 93/256/74 71/257/74
f 61/258/75 88/259/75 87/260/75
f 91/261/76 105/262/76 88/263/76 62/264/76
f 7/265/77 92/266/77 89/267/77 8/268/77
f 106/269/78 107/270/78 105/271/78 91/272/78 90/273/78 89/274/78 108/275/78
f 103/276/79 92/277/79 79/278/79
f 92/279/80 7/280/80 6/281/80 18/282/80 17/283/80
f 109/284/81 103/285/81 94/286/81 93/287/81 104/288/81
f 94/289/82 103/290/82 102/291/82 110/292/82 111/293/82 112/294/82 95/295/82
f 113/296/83 114/297/83 109/298/83 104/299/83 87/300/83
f 87/301/84 88/302/84 115/303/84 106/304/84 108/305/84 116/306/84 117/307/84
f 88/308/85 105/309/85 107/310/85 115/311/85
f 118/312/86 89/313/86 92/314/86
f 107/315/87 106/316/87 115/317/87
f 89/318/88 118/319/88 116/320/88 108/321/88
f 103/322/89 118/323/89 92/324/89
f 18/325/90 6/326/90 1/327/90 5/328/90 13/329/90
f 109/330/91 114/331/91 118/332/91 103/333/91
f 87/334/92 117/335/92 119/336/92 113/337/92
f 118/338/93 114/339/93 113/340/93 119/341/93
f 118/342/94 119/343/94 117/344/94 116/345/94
