# Blender v2.79 (sub 0) OBJ File: ''
# www.blender.org
mtllib Cylinder_shard.016.mtl
o Cylinder_shard.016_Cylinder_shard.236
v -0.949194 0.501871 -0.288980
v -0.950232 0.515488 -0.269064
v -0.946993 0.511849 -0.270615
v -0.946455 0.511245 -0.270873
v -0.945187 0.509819 -0.271481
v -0.945224 0.509681 -0.271742
v -0.945236 0.509636 -0.271829
v -0.946754 0.504027 -0.282510
v -0.947126 0.502655 -0.285123
v -0.959238 0.523869 -0.266121
v -0.958198 0.523930 -0.264867
v -0.950387 0.501378 -0.291070
v -0.950560 0.501306 -0.291373
v -0.951096 0.501085 -0.292312
v -0.951242 0.501080 -0.292482
v -0.951638 0.502209 -0.291176
v -0.953026 0.506164 -0.286600
v -0.954414 0.510120 -0.282025
v -0.955142 0.512195 -0.279624
v -0.955802 0.514075 -0.277449
v -0.957190 0.518031 -0.272874
v -0.958578 0.521986 -0.268298
v -0.959649 0.526362 -0.264767
v -0.959649 0.526362 -0.264767
v -0.945542 0.509673 -0.270906
v -0.954793 0.496445 -0.280776
v -0.950966 0.507406 -0.262229
v -0.954414 0.496360 -0.282025
v -0.953712 0.496201 -0.284340
v -0.964059 0.514600 -0.250229
v -0.964130 0.514401 -0.249997
v -0.964912 0.512195 -0.247417
v -0.965108 0.511643 -0.246772
v -0.963423 0.509515 -0.247467
v -0.962210 0.509310 -0.248905
v -0.954278 0.507967 -0.258303
v -0.958578 0.501106 -0.268298
v -0.957190 0.499397 -0.272874
v -0.955802 0.497688 -0.277449
v -0.955802 0.512195 -0.277449
v -0.953026 0.497533 -0.286600
v -0.951638 0.500229 -0.291176
v -0.961354 0.521816 -0.259148
v -0.964130 0.512195 -0.249997
v -0.962742 0.518114 -0.254572
v -0.962742 0.512195 -0.254572
v -0.965518 0.509650 -0.245421
v -0.965518 0.509711 -0.245421
v -0.964130 0.507942 -0.249997
v -0.965528 0.509663 -0.245388
v -0.965528 0.509663 -0.245388
v -0.965528 0.509663 -0.245388
v -0.962742 0.506233 -0.254572
v -0.961354 0.504524 -0.259148
v -0.959966 0.502815 -0.263723
v -0.958578 0.512195 -0.268298
v -0.957190 0.512195 -0.272874
v -0.951550 0.500400 -0.291466
v -0.961354 0.512195 -0.259148
v -0.959966 0.512195 -0.263723
v -0.959966 0.525517 -0.263723
vt 0.008885 0.028980
vt 0.025474 0.011432
vt 0.025818 0.016533
vt 0.025875 0.017381
vt 0.026009 0.019379
vt 0.025765 0.019549
vt 0.025684 0.019606
vt 0.015713 0.026563
vt 0.013273 0.028266
vt 0.018116 0.008192
vt 0.019385 0.007169
vt 0.028273 0.015732
vt 0.028273 0.039881
vt 0.026780 0.041831
vt 0.026563 0.042114
vt 0.025892 0.042990
vt 0.025715 0.043127
vt 0.025339 0.041396
vt 0.024020 0.035333
vt 0.022701 0.029269
vt 0.022009 0.026088
vt 0.021382 0.023206
vt 0.020063 0.017142
vt 0.018744 0.011078
vt 0.038711 0.011419
vt 0.038711 0.013049
vt 0.035981 0.012177
vt 0.035981 0.012177
vt 0.036919 0.032375
vt 0.037542 0.031627
vt 0.046601 0.026356
vt 0.046601 0.048238
vt 0.036058 0.044503
vt 0.036926 0.032277
vt 0.045802 0.049273
vt 0.044321 0.051191
vt 0.035848 0.047471
vt 0.036947 0.031980
vt 0.040660 0.006538
vt 0.040405 0.006356
vt 0.037567 0.004335
vt 0.036858 0.003830
vt 0.034884 0.005819
vt 0.035021 0.007706
vt 0.035923 0.020044
vt 0.036300 0.025197
vt 0.040660 0.034728
vt 0.029091 0.009099
vt 0.017213 0.014037
vt 0.012318 0.012689
vt 0.007422 0.011341
vt 0.003863 0.010361
vt 0.025233 0.005661
vt 0.000000 0.000000
vt 0.000000 0.000000
vt 0.000000 0.000000
vt 0.000000 0.000000
vt 0.000000 0.000000
vt 0.000000 0.000000
vt 0.000000 0.000000
vt 0.000000 0.000000
vt 0.000000 0.000000
vt 0.004291 0.036087
vt 0.007957 0.032002
vt 0.009607 0.032418
vt 0.010402 0.034743
vt 0.011690 0.038998
vt 0.002479 0.038105
vt 0.024926 0.046762
vt 0.024435 0.048513
vt 0.025081 0.048759
vt 0.004600 0.028481
vt 0.024860 0.045916
vt 0.024463 0.040819
vt 0.022922 0.028573
vt 0.023630 0.025829
vt 0.016274 0.026854
vt 0.010285 0.027689
vt 0.000000 0.000000
vt 0.000000 0.000000
vt 0.000000 0.000000
vt 0.000000 0.000000
vt 0.000000 0.000000
vt 0.000000 0.000000
vt 0.000000 0.000000
vt 0.000000 0.000000
vt 0.000000 0.000000
vt 0.000000 0.000000
vt 0.031522 0.005397
vt 0.029299 0.006283
vt 0.029244 0.006305
vt 0.029244 0.006305
vt 0.029244 0.006305
vt 0.031522 0.008199
vt 0.038326 0.017330
vt 0.039739 0.018589
vt 0.041726 0.020786
vt 0.036794 0.019429
vt 0.031899 0.018081
vt 0.027004 0.016733
vt 0.022108 0.015385
vt 0.000000 0.000000
vt 0.000000 0.000000
vt 0.000000 0.000000
vt 0.000000 0.000000
vt 0.000000 0.000000
vt 0.000000 0.000000
vt 0.000000 0.000000
vt 0.008190 0.031743
vt 0.009492 0.032081
vt 0.000000 0.000000
vt 0.000000 0.000000
vt 0.000000 0.000000
vt 0.041690 0.020777
vt 0.041726 0.020786
vt 0.000000 0.000000
vt 0.041726 0.020786
vt 0.000000 0.000000
vt 0.000000 0.000000
vt 0.000000 0.000000
vt 0.000000 0.000000
vt 0.000000 0.000000
vt 0.000000 0.000000
vt 0.000000 0.000000
vt 0.009134 0.031037
vt 0.023630 0.025829
vt 0.022263 0.026019
vt 0.000000 0.000000
vt 0.000000 0.000000
vt 0.000000 0.000000
vt 0.031878 0.051841
vt 0.031878 0.053020
vt 0.031663 0.051778
vn 0.5665 0.6937 -0.4448
vn 0.5171 0.7189 -0.4646
vn 0.6833 0.4319 -0.5887
vn 0.6919 -0.6750 0.2561
vn 0.6924 -0.6744 0.2563
vn 0.6916 -0.6752 0.2563
vn 0.7292 0.3949 0.5589
vn 0.3561 -0.8348 0.4198
vn -0.9569 0.0000 -0.2903
vn 0.6703 -0.7102 -0.2151
vn 0.7258 0.4103 0.5522
vn 0.7257 0.4104 0.5522
vn 0.6771 0.3198 0.6627
vn 0.6703 -0.7102 -0.2150
vn 0.7258 0.4104 0.5521
vn 0.1367 0.9811 0.1367
vn -0.9572 0.0000 -0.2895
vn 0.0000 0.0000 1.0000
vn -0.9570 -0.0000 -0.2903
vn 0.6703 -0.7102 -0.2152
vn 0.8944 0.0000 -0.4472
vn 0.4761 -0.7908 -0.3846
usemtl Cylinder_Outer
s off
f 1/1/1 2/2/1 3/3/1 4/4/1 5/5/1 6/6/1 7/7/1 8/8/1 9/9/1
f 10/10/2 11/11/2 2/12/2 1/13/2 12/14/2 13/15/2 14/16/2 15/17/2 16/18/2 17/19/2 18/20/2 19/21/2 20/22/2 21/23/2 22/24/2
f 11/25/3 10/26/3 23/27/3 24/28/3
f 7/29/4 25/30/4 27/31/4 26/32/4 8/33/4
f 6/34/5 25/30/5 7/29/5
f 8/33/4 26/32/4 28/35/4 29/36/4 9/37/4
f 5/38/6 25/30/6 6/34/6
f 30/39/7 31/40/7 32/41/7 33/42/7 34/43/7 35/44/7 36/45/7 27/46/7 25/47/7
f 36/48/8 37/49/8 38/50/8 39/51/8 26/52/8 27/53/8
f 18/54/9 28/55/9 26/56/9 39/57/9 40/58/9 19/59/9
f 17/60/9 41/61/9 29/62/9 28/55/9 18/54/9
f 41/63/10 42/64/10 12/65/10 1/66/10 9/67/10 29/68/10
f 4/69/11 25/70/11 5/71/11
f 30/72/12 25/70/12 3/73/12 2/74/12 11/75/12 24/76/12 43/77/12 45/78/12
f 44/79/9 31/80/9 30/81/9 45/82/9 46/83/9
f 31/80/9 44/79/9 32/84/9
f 47/85/9 48/86/9 33/87/9 32/84/9 44/79/9 49/88/9
f 33/89/13 48/90/13 50/91/13 51/92/13 52/93/13 34/94/13
f 35/95/8 34/96/8 52/97/8 49/98/8
f 35/95/8 49/98/8 53/99/8 54/100/8 55/101/8 37/49/8 36/48/8
f 37/102/9 56/103/9 57/104/9 38/105/9
f 38/105/9 57/104/9 40/58/9 39/57/9
f 19/59/9 40/58/9 20/106/9
f 16/107/9 42/108/9 41/61/9 17/60/9
f 12/65/14 42/64/14 58/109/14 13/110/14
f 3/73/15 25/70/15 4/69/15
f 49/88/9 44/79/9 46/83/9 53/111/9
f 43/112/9 59/113/9 46/83/9 45/82/9
f 47/114/16 49/98/16 52/97/16 51/115/16
f 48/86/17 47/85/17 50/116/17
f 50/117/18 47/114/18 51/115/18
f 53/111/9 46/83/9 59/113/9 54/118/9
f 54/118/9 59/113/9 60/119/9 55/120/9
f 55/120/9 60/119/9 56/103/9 37/102/9
f 21/121/9 57/104/9 56/103/9 22/122/9
f 20/106/9 40/58/9 57/104/9 21/121/9
f 15/123/19 58/124/19 42/108/19 16/107/19
f 13/110/20 58/109/20 14/125/20
f 23/126/21 61/127/21 43/77/21 24/76/21
f 61/128/9 60/119/9 59/113/9 43/112/9
f 22/122/9 56/103/9 60/119/9 61/128/9 23/129/9 10/130/9
f 14/131/22 58/132/22 15/133/22
